<svg width="1392" height="931" viewBox="0 0 1392 931" fill="none" xmlns="http://www.w3.org/2000/svg">
<g clip-path="url(#clip0)">
<g opacity="0.5">
<g opacity="0.5">
<g opacity="0.5">
<path opacity="0.5" d="M-360.31 36.6667C-272.051 -25.6492 -128.103 -25.6492 -40.4149 36.6667L928.982 725.669C1016.62 787.985 1016.2 889.971 927.963 952.287C839.724 1014.6 695.745 1014.6 608.068 952.287L-361.339 263.285C-448.976 200.969 -448.548 98.9826 -360.32 36.6667" fill="white"/>
</g>
</g>
</g>
<g opacity="0.5">
<g opacity="0.5">
<g opacity="0.5">
<path opacity="0.5" d="M27.0553 73.5328C55.1195 53.679 100.884 53.679 128.755 73.5328L436.962 292.548C464.842 312.365 464.69 344.782 436.625 364.598C408.561 384.415 362.807 384.415 334.926 364.598L26.7191 145.545C-1.15152 125.729 -1.01904 93.2995 27.0553 73.5328Z" fill="white"/>
</g>
</g>
</g>
<g opacity="0.5">
<g opacity="0.5">
<g opacity="0.5">
<path opacity="0.5" d="M951.319 530.932C979.383 511.128 1025.15 511.128 1053.02 530.932L1361.23 749.947C1389.11 769.764 1388.95 802.18 1360.89 821.997C1332.82 841.813 1287.07 841.813 1259.19 821.997L950.983 602.944C923.112 583.128 923.255 550.698 951.319 530.882" fill="white"/>
</g>
</g>
</g>
<g opacity="0.5">
<g opacity="0.5">
<g opacity="0.5">
<path opacity="0.5" d="M538.61 147.066C566.674 127.262 612.439 127.262 640.31 147.066L948.517 366.081C976.397 385.898 976.244 418.314 948.18 438.131C920.116 457.947 874.361 457.947 846.481 438.131L538.274 219.078C510.403 199.261 510.546 166.832 538.61 147.016" fill="white"/>
</g>
</g>
</g>
<g opacity="0.5">
<g opacity="0.5">
<g opacity="0.5">
<path opacity="0.5" d="M706.781 8.28798C719.01 -0.436245 739.085 -0.436245 751.283 8.28798L886.142 104.142C898.37 112.867 898.278 127 885.999 135.662C873.72 144.324 853.696 144.386 841.498 135.662L706.629 39.8074C694.4 31.0832 694.502 16.9499 706.781 8.28798Z" fill="white"/>
</g>
</g>
</g>
<g opacity="0.5">
<g opacity="0.5">
<g opacity="0.5">
<path opacity="0.5" d="M1148.2 295.166C1168.42 280.883 1201.4 280.883 1221.5 295.166L1443.64 453.037C1463.74 467.32 1463.63 490.688 1443.41 504.971C1423.19 519.254 1390.2 519.254 1370.11 504.971L1147.96 347.1C1127.87 332.817 1127.97 309.449 1148.2 295.166Z" fill="white"/>
</g>
</g>
</g>
<g opacity="0.5">
<g opacity="0.5">
<g opacity="0.5">
<path opacity="0.5" d="M716.972 486.874C729.2 478.15 749.275 478.15 761.473 486.874L896.332 582.729C908.56 591.391 908.469 605.586 896.189 614.248C883.91 622.91 863.886 622.972 851.688 614.248L716.819 518.394C704.59 509.732 704.692 495.536 716.972 486.874Z" fill="white"/>
</g>
</g>
</g>
<g opacity="0.5">
<g opacity="0.5">
<g opacity="0.5">
<path opacity="0.5" d="M698.466 179.283C718.847 164.875 752.138 164.875 772.397 179.283L996.452 338.525C1016.72 352.932 1016.61 376.5 996.207 390.87C975.806 405.24 942.545 405.278 922.276 390.87L698.221 231.666C677.953 217.258 678.065 193.69 698.466 179.32" fill="white"/>
</g>
</g>
</g>
<g opacity="0.5">
<g opacity="0.5">
<g opacity="0.5">
<path opacity="0.5" d="M139.108 27.8179C141.46 26.3555 144.062 25.5933 146.7 25.5933C149.339 25.5933 151.94 26.3555 154.292 27.8179L200.301 60.5213C204.469 63.475 204.449 68.3107 200.25 71.277C197.897 72.7336 195.296 73.4925 192.659 73.4925C190.021 73.4925 187.42 72.7336 185.067 71.277L139.057 38.6359C134.9 35.6697 134.92 30.8339 139.057 27.8802" fill="white"/>
</g>
</g>
</g>
<g opacity="0.5">
<g opacity="0.5">
<g opacity="0.5">
<path opacity="0.5" d="M259.568 -38.1C274.059 -48.3322 297.69 -48.3322 312.089 -38.1L471.283 75.0408C485.682 85.2731 485.549 102.024 471.109 112.256C456.67 122.488 432.977 122.488 418.578 112.256L259.395 -0.884892C244.996 -11.1172 245.067 -27.8677 259.568 -38.1Z" fill="white"/>
</g>
</g>
</g>
<g opacity="0.5">
<g opacity="0.5">
<g opacity="0.5">
<path opacity="0.5" d="M913.574 50.2516C915.926 48.7892 918.527 48.027 921.166 48.027C923.804 48.027 926.405 48.7892 928.757 50.2516L974.767 82.955C978.935 85.9087 978.914 90.7445 974.767 93.7107C972.413 95.1673 969.813 95.9262 967.175 95.9262C964.537 95.9262 961.937 95.1673 959.583 93.7107L913.523 61.0696C909.365 58.1034 909.386 53.2677 913.523 50.3139" fill="white"/>
</g>
</g>
</g>
<g opacity="0.5">
<g opacity="0.5">
<g opacity="0.5">
<path opacity="0.5" d="M968.948 -99.3441C1017.35 -133.518 1096.33 -133.518 1144.39 -99.3441L1676.05 278.54C1724.13 312.714 1723.88 368.649 1675.47 402.823C1627.07 436.997 1548.1 436.997 1500.03 402.823L968.377 24.9264C920.289 -9.26015 920.544 -65.1825 968.948 -99.369" fill="white"/>
</g>
</g>
</g>
</g>
<defs>
<clipPath id="clip0">
<rect width="1392" height="931" fill="white"/>
</clipPath>
</defs>
</svg>
